<?xml version="1.0" encoding="utf-8"?>
<!-- Generator: Adobe Illustrator 27.5.0, SVG Export Plug-In . SVG Version: 6.00 Build 0)  -->
<svg version="1.1" xmlns="http://www.w3.org/2000/svg" xmlns:xlink="http://www.w3.org/1999/xlink" x="0px" y="0px"
	 viewBox="0 0 500 500" style="enable-background:new 0 0 500 500;" xml:space="preserve">
<g id="BACKGROUND">
	<rect style="fill:#FFFFFF;" width="500" height="500"/>
</g>
<g id="OBJECTS">
	<g>
		<g>
			<path style="fill:#E7F2F8;" d="M346.719,445.569c0,3.739-30.637,6.77-68.429,6.77c-37.793,0-68.43-3.031-68.43-6.77
				c0-3.739,30.637-6.77,68.43-6.77C316.082,438.798,346.719,441.829,346.719,445.569z"/>
			<g>
				<path style="fill:#070517;" d="M223.494,85.387c0,0-11.703,23.647-13.929,32.019c-2.227,8.372,5.195,16.498,4.701,28.81
					c-0.495,12.312,19.124,18.222,32.693,16.005c13.57-2.216,13.817-20.112,11.838-30.124c-1.979-10.012,1.757-22.078-5.925-37.591
					C245.19,78.993,223.494,85.387,223.494,85.387z"/>
				<path style="fill:#FEBEA3;" d="M231.799,434.259h12.603c0,0-0.71-7.541-1.492-18.034c-5.303,0.118-10.593,0.243-15.87,0.372
					C229.608,425.923,231.799,434.259,231.799,434.259z"/>
				<path style="fill:#18134D;" d="M306.673,415.565c-5.313-25.105-14.236-68.152-15.927-81.891
					c-2.439-19.812-23.172-108.205-24.392-108.967c-1.22-0.762-36.994,22.86-51.629,0c0,0-11.789,36.957-11.789,54.103
					c0,17.145,14.228,65.152,15.448,71.629c1.22,6.477-0.813,34.671,2.846,46.102c1.598,4.994,3.817,12.823,5.81,20.058
					c5.278-0.129,10.567-0.254,15.87-0.372c-1.51-20.265-3.289-51.546-0.744-60.834c3.862-14.097,0-78.868,0-78.868
					s13.619,50.293,18.904,60.961c5.285,10.668,8.944,16.002,8.944,16.002s1.626,18.669,7.317,28.956
					c3.12,5.639,8.195,20.668,12.143,33.096C295.216,415.514,300.949,415.527,306.673,415.565z"/>
				<path style="fill:#FEBEA3;" d="M289.474,415.539c3.254,10.243,5.744,18.72,5.744,18.72h15.448c0,0-1.644-7.597-3.992-18.694
					C300.949,415.527,295.216,415.514,289.474,415.539z"/>
				<path style="fill:#FEBEA3;" d="M222.223,137.792c0.222-0.209,0.405-0.396,0.535-0.57c2.552-3.43,1.527-13.676,1.527-13.676
					c6.632,5.975,19.537,2.017,19.537,2.017s-0.816,10.17,2.187,13.015c-3.727,5.565-6.214,8.326-11.874,8.118
					C229.292,146.515,224.436,140.637,222.223,137.792z"/>
				<path style="fill:#EBAF97;" d="M224.284,123.544c0,0,8.498,5.036,19.541,2.017l0.158,7.518
					C243.983,133.079,230.032,137.689,224.284,123.544z"/>
				<path style="fill:#FEBEA3;" d="M236.867,80.182c4.628,0.57,8.689,3.55,10.853,7.946c1.983,4.027,3.976,9.848,3.736,16.693
					c-0.465,13.248-3.602,23.649-13.478,25.878c-9.876,2.229-16.731-10.029-17.777-15.601
					C219.252,110.05,216.398,77.663,236.867,80.182z"/>
				<path style="fill:#E53834;" d="M269.647,164.281c-0.379-6.219,1.586-13.523,3.368-18.691c-0.268-0.341-0.503-0.57-0.705-0.668
					c-4.661-2.31-22.997-3.555-26.163-6.219l-0.137-0.125c-3.727,5.565-6.214,8.326-11.874,8.118
					c-4.843-0.181-9.7-6.059-11.913-8.904c-4.106,3.701-22.978,11.353-26.242,17.307c-0.085,0.153-0.163,0.32-0.242,0.508
					c2.389,3.228,6.339,9.12,8.127,15.005c2.67,8.765,8.225,49.667,8.225,49.667l6.919,1.565c0-0.001,0.001-0.002,0.001-0.002
					l22.246,5.024l2.259-6.795c5.673-1.64,18.194-5.148,26.378-6.644c0.196-0.918,1.397-6.518,2.069-9.182
					c0.529-2.129,1.24-6.441,1.756-8.939C271.984,183.974,270.006,170.243,269.647,164.281z"/>
				<path style="fill:#FEBEA3;" d="M275.189,228.758c-18.8,1.363-33.539-1.802-33.539-1.802l-0.392-0.09
					c-1.795-0.09-4.126-0.285-4.876-0.661c-0.32-0.16-0.666-0.389-1.031-0.668l-0.007-0.007l-9.047-2.045
					c-0.065,0.702-0.118,1.405-0.183,1.781c-0.157,0.883-0.908,1.189-0.908,1.189c-0.228-0.348-0.437-1.962-0.6-3.353l-0.79-0.174
					c-0.163,0.765-0.333,1.579-0.457,2.115c-0.287,1.273-1.456,1.663-1.612,1.607c-0.091-0.035,0.104-2.309,0.261-4.132
					l-1.971-0.445c-0.438,0.132-1.018-0.063-1.038-0.174c0-0.007,0.007-0.028,0.013-0.056l-6.919-1.565
					c0,0-2.222-16.357-4.531-30.601c-4.505,0.249-9.049,0.208-13.609-0.008c0.187,6.536,0.482,12.446,0.697,16.106
					c0.666,11.373,2.441,20.84,4.217,22.976c1.782,2.129,14.283,14.204,54.781,6.747c0,0,11.038-3.214,21.548-6.734L275.189,228.758
					z"/>
				<path style="fill:#E53834;" d="M207.561,189.678c-1.342-8.279-2.713-15.844-3.694-19.066
					c-1.789-5.885-5.738-11.777-8.127-15.005c-2.099,4.935-2.167,20.795-1.788,34.062
					C198.512,189.885,203.057,189.927,207.561,189.678z"/>
				<g>
					<g>
						<path style="fill:#E53834;" d="M273.015,145.59c-1.782,5.169-3.747,12.472-3.368,18.691c0.173,2.877,0.724,7.565,1.442,12.918
							c4.22-1.838,8.292-4.004,11.887-6.775C279.069,158.418,275.114,148.318,273.015,145.59z"/>
						<path style="fill:#FEBEA3;" d="M282.976,170.425c-3.594,2.771-7.667,4.937-11.887,6.775c0.77,5.74,1.733,12.243,2.631,18.106
							c0.189-0.925,0.352-1.6,0.47-1.829c0.437-0.863,1.325,0.925,1.41,2.087c0.091,1.162,0,3.443,0,3.443s5.007-5.384,5.235-5.336
							c0.228,0.049,0.32,1.162,0,3.054c-0.307,1.809-3.649,5.356-3.936,5.662c0.392-0.32,6.678-5.37,6.893-5.37
							c0.228,0,0.274,1.454-0.313,2.428c-0.594,0.967-3.46,4.361-4.648,5.62c-1.182,1.266-1.599,3.464-1.599,3.464
							s6.835-5.788,7.017-5.788s0.457,1.551-0.679,2.81c-1.142,1.259-4.145,4.104-5.007,4.897c-0.725,0.661-1.834,1.509-2.174,1.76
							c0.059,0.362,0,0,0,0c-0.777-0.09-1.828,0.529-3.238,0.703l-3.284,0.647c0,0,0.007-0.049,0.026-0.132
							c-9.7,1.774-25.491,6.372-28.755,7.339c-0.392,0.111-0.601,0.174-0.601,0.174l1.097,5.948l0.013,0.07
							c0,0,14.74,3.165,33.539,1.802l0.006,0.007c7.474-2.511,14.681-5.175,17.449-6.942
							C296.732,219.208,289.93,191.797,282.976,170.425z"/>
						<g>
							<path style="fill:#FEBEA3;" d="M241.636,226.887c-0.124-0.007-0.248-0.014-0.379-0.021c-1.795-0.09-4.126-0.285-4.876-0.661
								c-0.32-0.16-0.666-0.389-1.031-0.668l-0.007-0.007c-1.097-0.842-2.317-2.135-3.173-3.422
								c-1.142-1.718-2.702-2.052-3.172-2.108c-0.463-0.056-1.971,1.023-2.311,1.356c-0.196,0.195-0.307,1.169-0.392,2.129
								c-0.065,0.702-0.118,1.405-0.183,1.781c-0.157,0.883-0.908,1.189-0.908,1.189c-0.228-0.348-0.437-1.962-0.6-3.353
								c-0.137-1.162-0.235-2.163-0.281-2.163c-0.059,0-0.281,0.946-0.509,1.99c-0.163,0.765-0.333,1.579-0.457,2.115
								c-0.287,1.273-1.456,1.663-1.612,1.607c-0.091-0.035,0.104-2.309,0.261-4.132c0.098-1.224,0.176-2.247,0.137-2.247
								c-0.007,0.007-0.007,0.007-0.007,0.007c-0.131,0.223-1.534,1.523-1.978,1.746c-0.039,0.021-0.085,0.035-0.124,0.049
								c-0.438,0.132-1.018-0.063-1.038-0.174c0-0.007,0.007-0.028,0.013-0.056c0.215-0.612,2.631-5.753,3.545-6.72
								c0.96-1.022,4.315-1.774,4.315-1.774s-0.862-0.856-1.378-1.189c-0.522-0.334-3.12-0.751-4.053-0.995
								c-0.94-0.243-2.709-1.029-2.552-1.969c0.157-0.946,6.449-0.167,7.592,0c1.142,0.167,4.419,3.548,5.255,4.32
								c0.829,0.779,6.443,5.816,8.003,6.762c0.437,0.264,0.927,0.41,1.404,0.487c-0.392,0.111-0.601,0.174-0.601,0.174
								L241.636,226.887z"/>
							<g>
								<path style="fill:#EBAF97;" d="M219.038,221.85l-0.011,0.049l0-0.005c0.205,0.166,0.589,0.204,0.876,0.154
									c0.298-0.051,0.535-0.301,0.782-0.497c0.243-0.21,0.479-0.429,0.709-0.654c0.221-0.22,0.476-0.465,0.636-0.683l0.014-0.019
									l0.003-0.004l0.006-0.007c0.015-0.016,0.034-0.027,0.054-0.031l0.039-0.008c0.083-0.018,0.155,0.155,0.13,0.121l0.004,0.028
									l0.003,0.046l0.002,0.078l-0.002,0.149l-0.012,0.293l-0.032,0.584l-0.074,1.165l-0.157,2.324l-0.063,1.158l-0.007,0.285
									l0.001,0.135l0.004,0.056c0,0,0.003,0.023,0,0.003c-0.011-0.023,0.016,0.025-0.029-0.054
									c-0.022-0.033-0.067-0.059-0.092-0.066l-0.007-0.004c-0.05-0.006,0.094-0.021,0.152-0.052
									c0.078-0.031,0.157-0.066,0.232-0.111c0.304-0.172,0.558-0.43,0.73-0.732c0.173-0.299,0.23-0.656,0.313-1.048l0.483-2.281
									c0.084-0.382,0.168-0.758,0.283-1.147l0.053-0.158l0.022-0.052l0.02-0.037l0.015-0.023c0.024-0.032,0.063-0.067,0.108-0.087
									c0.073-0.04,0.199-0.039,0.301,0.077c0.069,0.114,0.027,0.052,0.045,0.087l0.017,0.061c0.024,0.118,0.035,0.21,0.048,0.31
									l0.068,0.583l0.263,2.312c0.104,0.741,0.169,1.596,0.404,2.197l-0.237-0.074c0.26-0.117,0.518-0.349,0.661-0.619
									c0.154-0.267,0.183-0.602,0.228-0.953l0.234-2.095c0.051-0.351,0.096-0.7,0.21-1.054c0.033-0.089,0.058-0.178,0.148-0.276
									c0.069-0.064,0.138-0.122,0.207-0.178c0.139-0.112,0.282-0.216,0.427-0.32c0.29-0.203,0.586-0.398,0.899-0.569
									c0.3-0.147,0.661-0.386,1.053-0.271c1.426,0.276,2.602,1.301,3.33,2.495c0.828,1.118,1.803,2.139,2.902,2.983l0.017,0.015
									l0.007,0.007l-0.017-0.016c0.431,0.31,0.883,0.646,1.37,0.769c0.509,0.136,1.05,0.204,1.587,0.265
									c1.079,0.116,2.163,0.168,3.255,0.211l0.018,0.002l0.009,0.001c2.769,0.443,5.552,0.846,8.338,1.184
									c2.788,0.333,5.576,0.663,8.375,0.875c2.796,0.223,5.598,0.437,8.404,0.455c2.803,0.014,5.615-0.047,8.398-0.449
									c0.015-0.002,0.029,0.008,0.032,0.023c0.002,0.014-0.008,0.028-0.022,0.031c-2.764,0.559-5.593,0.718-8.408,0.759
									c-2.818,0.044-5.637-0.061-8.447-0.264c-2.809-0.213-5.613-0.49-8.403-0.87c-2.79-0.381-5.575-0.784-8.345-1.316
									l0.027,0.003c-1.088-0.07-2.184-0.148-3.273-0.292c-0.545-0.076-1.089-0.156-1.632-0.314
									c-0.574-0.17-1.01-0.521-1.455-0.847l-0.018-0.016l-0.006-0.007l0.017,0.015c-1.113-0.886-2.079-1.934-2.902-3.084
									c-0.394-0.593-0.783-1.152-1.336-1.58c-0.535-0.432-1.179-0.738-1.852-0.861c-0.318-0.1-0.619,0.109-0.925,0.262
									c-0.301,0.17-0.59,0.365-0.872,0.568c-0.14,0.103-0.28,0.207-0.412,0.317l-0.19,0.167c-0.032,0.032-0.066,0.114-0.088,0.19
									c-0.092,0.318-0.129,0.671-0.167,1.015l-0.167,2.098c-0.033,0.341-0.049,0.728-0.234,1.086
									c-0.182,0.351-0.457,0.632-0.831,0.814l-0.007,0.003c-0.085,0.042-0.188,0.007-0.23-0.077
									c-0.224-0.438-0.256-0.798-0.344-1.193c-0.071-0.387-0.135-0.772-0.187-1.159l-0.286-2.317l-0.072-0.574l-0.043-0.265
									c-0.002-0.013-0.002-0.009-0.002-0.009c0.014,0.024-0.029-0.051,0.032,0.054c0.094,0.105,0.213,0.094,0.276,0.069
									c0.041-0.016,0.075-0.047,0.094-0.075c0.008-0.012,0.006-0.007,0.006-0.007l0.003-0.004
									c0.003-0.009-0.006,0.015-0.006,0.015l-0.038,0.119c-0.099,0.358-0.186,0.741-0.276,1.115l-0.51,2.274
									c-0.082,0.364-0.152,0.789-0.375,1.168c-0.217,0.371-0.531,0.682-0.906,0.888c-0.093,0.053-0.192,0.097-0.295,0.136
									c-0.125,0.029-0.17,0.085-0.414,0.059l-0.025-0.006c-0.029-0.01-0.078-0.042-0.104-0.08
									c-0.053-0.089-0.026-0.054-0.041-0.088c-0.011-0.043-0.008-0.044-0.012-0.068l-0.005-0.089l0-0.156l0.012-0.298
									c0.02-0.393,0.053-0.78,0.088-1.168l0.227-2.322l0.108-1.159l0.049-0.579l0.02-0.288l0.008-0.142l0.002-0.068l0-0.027
									l0-0.008c-0.024-0.046,0.039,0.116,0.117,0.088l0.093-0.04l-0.007,0.007l0.017-0.023c-0.236,0.293-0.47,0.478-0.715,0.704
									c-0.244,0.215-0.492,0.424-0.749,0.624c-0.261,0.184-0.506,0.432-0.863,0.483c-0.331,0.02-0.684,0.018-0.951-0.249l0-0.005
									l0.015-0.062c0.004-0.015,0.019-0.024,0.033-0.02C219.032,221.821,219.041,221.835,219.038,221.85z"/>
							</g>
							<g>
								<g>
									<g>
										<path style="fill:#EBAF97;" d="M222.138,220.277c0.147-0.653,0.37-1.28,0.639-1.895c0.13-0.312,0.289-0.606,0.492-0.905
											c0.097-0.145,0.271-0.311,0.422-0.403c0.147-0.094,0.293-0.181,0.439-0.264c0.59-0.315,1.184-0.604,1.799-0.852
											c0.613-0.252,1.23-0.49,1.876-0.668c-0.547,0.385-1.118,0.719-1.688,1.049c-0.567,0.336-1.153,0.637-1.72,0.954
											c-0.143,0.076-0.283,0.155-0.415,0.234c-0.132,0.08-0.196,0.147-0.298,0.265c-0.192,0.23-0.354,0.515-0.532,0.785
											C222.813,219.135,222.495,219.712,222.138,220.277z"/>
									</g>
									<g>
										<path style="fill:#EBAF97;" d="M224.322,220.942c0.107-0.54,0.31-1.055,0.643-1.529c0.379-0.496,0.87-0.736,1.316-1.042
											c0.464-0.278,0.932-0.546,1.423-0.773c0.488-0.232,0.981-0.454,1.506-0.618c-0.411,0.364-0.851,0.677-1.292,0.985
											c-0.438,0.313-0.896,0.592-1.348,0.876c-0.446,0.284-0.945,0.532-1.283,0.846
											C224.933,220.044,224.634,220.495,224.322,220.942z"/>
									</g>
								</g>
							</g>
						</g>
					</g>
				</g>
				<polygon style="fill:#CF332F;" points="271.089,177.2 268.09,162.68 273.965,175.879 				"/>
				<polygon style="fill:#CF332F;" points="207.561,189.678 204.679,173.829 204.679,189.669 				"/>
				<g>
					<path style="fill:#FEBEA3;" d="M283.57,205.552c-1.142,1.259-4.145,4.104-5.007,4.897c-0.725,0.661-1.834,1.509-2.174,1.76
						c-0.065,0.056-0.104,0.084-0.104,0.084l-3.133,0.619l-3.284,0.647c0,0,0.007-0.049,0.026-0.132
						c0.196-0.918,1.397-6.518,2.069-9.182c0.529-2.129,1.24-6.441,1.756-8.939c0.189-0.925,0.352-1.6,0.47-1.829
						c0.437-0.863,1.325,0.925,1.41,2.087c0.091,1.162,0,3.443,0,3.443s5.007-5.384,5.235-5.336c0.228,0.049,0.32,1.162,0,3.054
						c-0.307,1.809-3.649,5.356-3.936,5.662c0.392-0.32,6.678-5.37,6.893-5.37c0.228,0,0.274,1.454-0.313,2.428
						c-0.594,0.967-3.46,4.361-4.648,5.62c-1.182,1.266-1.599,3.464-1.599,3.464s6.835-5.788,7.017-5.788
						S284.706,204.293,283.57,205.552z"/>
					<g>
						<path style="fill:#EBAF97;" d="M273.693,195.3l0.198-1.033c0.102-0.338,0.089-0.697,0.375-1.018
							c0.193-0.176,0.468-0.025,0.575,0.103c0.135,0.134,0.24,0.285,0.33,0.442c0.18,0.314,0.321,0.645,0.422,0.991
							c0.217,0.701,0.187,1.426,0.215,2.122c0.012,0.704,0.007,1.405-0.008,2.108l-0.347-0.145l2.995-3.214
							c0.506-0.531,1.012-1.059,1.537-1.578l0.406-0.385l0.115-0.096c0.063-0.041,0.021-0.041,0.173-0.119
							c0.063-0.028,0.133-0.042,0.193-0.046c0.06,0.002,0.174,0.071,0.19,0.102c0.08,0.087,0.094,0.146,0.121,0.208
							c0.125,0.441,0.098,0.798,0.093,1.181c-0.048,0.761-0.111,1.46-0.316,2.234c-0.271,0.73-0.685,1.352-1.111,1.957
							c-0.867,1.199-1.843,2.299-2.861,3.358l-0.167-0.178l4.413-3.473c0.734-0.583,1.459-1.169,2.22-1.727l0.147-0.103
							c0.017-0.015,0.071-0.042,0.108-0.058c0.046-0.011,0.066-0.054,0.165-0.007c0.187,0.17,0.144,0.283,0.179,0.41
							c0.031,0.248,0.02,0.489-0.004,0.729c-0.057,0.477-0.175,0.954-0.416,1.387c-1.06,1.589-2.275,2.995-3.476,4.442l-0.923,1.064
							c-0.335,0.352-0.59,0.673-0.816,1.077c-0.438,0.782-0.748,1.667-0.932,2.544l-0.425-0.248l4.186-3.558l2.13-1.741l0.556-0.428
							c0.012-0.019,0.194-0.128,0.307-0.145c0.057-0.007,0.19,0.042,0.243,0.1c0.023,0.026,0.044,0.055,0.064,0.085
							c0.043,0.066,0.041,0.087,0.063,0.134c0.049,0.151,0.069,0.279,0.078,0.409c0.039,0.513-0.057,1.008-0.237,1.472
							c-0.18,0.457-0.478,0.894-0.813,1.215l-0.991,0.958l-1.995,1.901l-1.997,1.896l-2.171,1.712l0.009-0.007l-0.117,0.091
							c-0.017,0.013-0.036,0.022-0.056,0.025l-0.006,0.001c-2.142,0.405-4.293,0.77-6.442,1.137
							c-0.015,0.003-0.029-0.008-0.032-0.023c-0.003-0.015,0.007-0.028,0.021-0.032c2.128-0.475,4.256-0.954,6.391-1.395
							l-0.061,0.026l0.092-0.076l0.009-0.007l2.096-1.744l1.935-1.937l1.93-1.939c0.623-0.667,1.402-1.222,1.674-2.01
							c0.15-0.388,0.227-0.815,0.194-1.216c-0.006-0.098-0.027-0.197-0.048-0.264c-0.003-0.005-0.015-0.043-0.008-0.022
							c0.003,0.006,0.009,0.011,0.015,0.014c0.029,0.047,0.135,0.075,0.167,0.067c0.017,0.044,0.094-0.016,0.018,0.039l-0.53,0.412
							l-2.114,1.743l-4.224,3.505l-0.009,0.007c-0.11,0.091-0.272,0.076-0.363-0.034c-0.053-0.064-0.07-0.147-0.053-0.222
							c0.215-0.948,0.531-1.852,1.03-2.691c0.238-0.412,0.582-0.817,0.902-1.134l0.942-1.033c1.22-1.402,2.504-2.801,3.543-4.311
							c0.223-0.382,0.345-0.83,0.406-1.278c0.027-0.224,0.04-0.454,0.016-0.671c0.001-0.095-0.06-0.248-0.05-0.232
							c0.056,0.021-0.095,0.077-0.179,0.148c-0.757,0.535-1.498,1.113-2.24,1.68c-1.475,1.149-2.928,2.331-4.369,3.521
							c-0.052,0.043-0.129,0.036-0.172-0.016c-0.039-0.047-0.034-0.118,0.006-0.162c0.975-1.083,1.908-2.212,2.719-3.412
							c0.398-0.6,0.774-1.228,0.998-1.878c0.165-0.641,0.239-1.411,0.271-2.108c0.008-0.345,0.006-0.733-0.076-0.997
							c-0.007-0.022-0.026-0.051-0.011-0.03c0.029,0.02,0.115,0.069,0.149,0.058c0.067-0.042-0.034,0.033-0.044,0.046l-0.095,0.081
							l-0.393,0.368c-0.522,0.503-1.035,1.025-1.545,1.547l-3.036,3.166l-0.004,0.004c-0.076,0.08-0.203,0.082-0.282,0.006
							c-0.043-0.041-0.064-0.099-0.061-0.154c0.036-0.696,0.063-1.395,0.073-2.092c-0.006-0.697,0.043-1.398-0.14-2.05
							c-0.088-0.328-0.199-0.655-0.355-0.956c-0.076-0.151-0.167-0.294-0.273-0.413c-0.108-0.122-0.24-0.194-0.335-0.109
							c-0.207,0.192-0.269,0.599-0.37,0.915l-0.252,1.019c-0.003,0.015-0.018,0.024-0.033,0.021
							C273.7,195.329,273.691,195.315,273.693,195.3z"/>
					</g>
					<g>
						<path style="fill:#EBAF97;" d="M276.877,202.401c-0.602,0.844-1.313,1.606-1.884,2.433c-0.283,0.382-0.406,0.895-0.57,1.375
							l-0.459,1.478c0.026-0.52,0.103-1.034,0.208-1.544c0.118-0.505,0.234-1.023,0.542-1.497
							C275.35,203.797,276.069,203.06,276.877,202.401z"/>
					</g>
					<g>
						<path style="fill:#EBAF97;" d="M272.826,204.147c0.07-0.495,0.296-0.941,0.49-1.389c0.204-0.446,0.443-0.873,0.67-1.305
							c0.497-0.841,0.996-1.68,1.614-2.447c-0.377,0.91-0.86,1.755-1.321,2.612l-0.735,1.26
							C273.302,203.3,273.026,203.703,272.826,204.147z"/>
					</g>
				</g>
				<g>
					<g>
						<path style="fill:none;stroke:#4E44AB;stroke-width:0.8676;stroke-linecap:round;stroke-linejoin:round;" d="M214.436,241.477
							c0,0-0.131,0.445-0.355,1.248"/>
						
							<path style="fill:none;stroke:#4E44AB;stroke-width:0.8676;stroke-linecap:round;stroke-linejoin:round;stroke-dasharray:2.6261,2.6261;" d="
							M213.394,245.257c-2.004,7.574-6.125,24.78-5.252,35.245c1.144,13.72,16.624,64.025,16.18,68.903
							c-0.444,4.878-2.112,30.488,0.009,40.244c1.526,7.021,3.924,15.147,5.149,19.152"/>
						<path style="fill:none;stroke:#4E44AB;stroke-width:0.8676;stroke-linecap:round;stroke-linejoin:round;" d="M229.868,410.057
							c0.246,0.791,0.389,1.238,0.389,1.238"/>
					</g>
				</g>
				<polygon style="fill:#070517;" points="242.166,276.523 247.097,262.971 245.597,288.909 				"/>
				<g>
					<polygon style="fill:#FEBEA3;" points="306.042,430.233 321.784,439.689 295.602,441.569 295.602,429.378 					"/>
					<path style="fill:#070517;" d="M292.692,440.304c0.069,1.851,0.381,3.565,0.672,4.683c0.187,0.718,0.793,1.21,1.492,1.221
						c1.006,0.016,2.713,0.114,4.849,0.244h29.684c1.788-0.604,2.047-1.58-0.17-3.097c-14.341-7.242-6.549-3.307-24.507-5.853
						c-4.654-1.286-8.414-6.408-11.048-5.823c-1.844,0.41-1.581,3.729-1.258,5.684C292.567,438.335,292.656,439.317,292.692,440.304
						z"/>
				</g>
				<g>
					<polygon style="fill:#FEBEA3;" points="242.883,430.233 258.625,439.689 232.443,441.569 232.443,429.378 					"/>
					<path style="fill:#070517;" d="M229.534,440.304c0.069,1.851,0.381,3.565,0.672,4.683c0.187,0.718,0.793,1.21,1.492,1.221
						c1.006,0.016,2.713,0.114,4.849,0.244h29.684c1.788-0.604,2.047-1.58-0.17-3.097c-14.341-7.242-6.549-3.307-24.507-5.853
						c-4.654-1.286-8.414-6.408-11.048-5.823c-1.844,0.41-1.581,3.729-1.258,5.684C229.409,438.335,229.497,439.317,229.534,440.304
						z"/>
				</g>
				<path style="fill:#070517;" d="M228.826,87.847c0,0,4.726,7.012,11.433,11.128c6.707,4.116,11.322,2.301,9.604,13.72
					s-2.634,23.329-1.525,26.372c1.11,3.043,0.61,6.86,7.622,11.433c7.012,4.573,13.639,2.134,13.639,2.134s-4.34-2.134-4.035-8.537
					c0.305-6.403,4.573-7.811,1.067-18.54c-3.506-10.729-7.622-7.527-4.421-20.485c3.201-12.957-14.024-36.89-33.384-25.915
					c0,0-14.482,5.183-14.634,20.275c-0.152,15.092,4.116,12.348,0,24.238c-4.116,11.89-9.74,18.428-8.072,25.449
					c1.669,7.021,7.614,11.899,7.614,11.899s-1.982-7.774,4.116-11.281c6.098-3.506,4.903-4.359,6.433-13.11
					c1.531-8.751-3.689-16.921-3.842-25.61C220.289,102.329,223.338,85.256,228.826,87.847z"/>
				<g>
					<path style="fill:#D6A08A;" d="M235.691,107.404c-0.311,0.653-0.369,1.44-0.094,2.11c0.28,0.683,0.87,1.15,1.497,1.527
						c0.316,0.195,0.598,0.458,0.809,0.772c0.214,0.316,0.252,0.755,0.071,1.095c-0.371,0.676-1.113,1.033-1.834,1.159l-0.009-0.06
						c0.338-0.171,0.645-0.346,0.889-0.59c0.256-0.211,0.468-0.474,0.527-0.714c0.044-0.24,0.023-0.388-0.132-0.588
						c-0.156-0.191-0.369-0.406-0.659-0.566c-0.255-0.183-0.665-0.445-0.945-0.742c-0.276-0.326-0.547-0.684-0.656-1.115
						c-0.116-0.422-0.132-0.858-0.054-1.261c0.11-0.397,0.264-0.769,0.536-1.057L235.691,107.404z"/>
				</g>
				<g>
					<g>
						<path style="fill:#070517;" d="M229.697,106.4c0,0.546-0.443,0.988-0.988,0.988s-0.989-0.442-0.989-0.988
							c0-0.546,0.443-0.989,0.989-0.989S229.697,105.854,229.697,106.4z"/>
						<path style="fill:#070517;" d="M231.279,103.25c-0.891-0.394-1.885-0.593-2.849-0.51c-0.485,0.019-0.96,0.151-1.401,0.346
							c-0.453,0.185-0.827,0.509-1.184,0.84c-0.017,0.016-0.044,0.015-0.06-0.002c-0.01-0.011-0.013-0.025-0.01-0.038l0.005-0.021
							c0.129-0.56,0.462-1.083,0.947-1.414c0.47-0.354,1.057-0.556,1.633-0.604c0.58-0.03,1.152,0.05,1.663,0.276
							c0.509,0.218,0.977,0.542,1.298,1.046l0.012,0.019c0.012,0.02,0.007,0.046-0.013,0.058
							C231.307,103.255,231.292,103.256,231.279,103.25z"/>
					</g>
					<g>
						<path style="fill:#070517;" d="M241.287,106.4c0,0.546,0.443,0.988,0.989,0.988c0.546,0,0.989-0.442,0.989-0.988
							c0-0.546-0.443-0.989-0.989-0.989C241.73,105.412,241.287,105.854,241.287,106.4z"/>
						<path style="fill:#070517;" d="M239.705,103.25c0.891-0.394,1.885-0.593,2.849-0.51c0.485,0.019,0.96,0.151,1.401,0.346
							c0.453,0.185,0.827,0.509,1.184,0.84c0.017,0.016,0.044,0.015,0.06-0.002c0.01-0.011,0.013-0.025,0.01-0.038l-0.005-0.021
							c-0.128-0.56-0.462-1.083-0.947-1.414c-0.47-0.354-1.057-0.556-1.633-0.604c-0.58-0.03-1.152,0.05-1.663,0.276
							c-0.509,0.218-0.976,0.542-1.298,1.046l-0.012,0.019c-0.013,0.02-0.007,0.046,0.013,0.058
							C239.677,103.255,239.692,103.256,239.705,103.25z"/>
					</g>
				</g>
				<path style="fill:#E53834;" d="M237.086,118.572c-0.829-0.371-1.288,0.743-1.288,0.743s-0.459-1.115-1.288-0.743
					c-0.829,0.372-1.693,0.942-1.693,0.942s0.753,2.459,2.98,2.088c2.228,0.372,2.981-2.088,2.981-2.088
					S237.915,118.943,237.086,118.572z"/>
				<g>
					<path style="fill:#070517;" d="M231.968,118.749c0.591,0.449,1.201,0.833,1.839,1.104c0.636,0.268,1.301,0.442,1.967,0.394
						c0.664,0.004,1.328-0.164,1.964-0.45c0.649-0.266,1.244-0.667,1.891-1.051l0.031,0.032l-0.83,0.729
						c-0.312,0.196-0.596,0.44-0.93,0.598c-0.644,0.365-1.38,0.558-2.12,0.59c-1.509,0.035-2.896-0.812-3.848-1.918L231.968,118.749
						z"/>
				</g>
				<g>
					<path style="opacity:0.14;fill:#E53834;" d="M231.883,112.57c0,1.61-1.706,2.915-3.811,2.915c-2.105,0-3.811-1.305-3.811-2.915
						c0-1.61,1.706-2.916,3.811-2.916C230.177,109.654,231.883,110.96,231.883,112.57z"/>
					<path style="opacity:0.14;fill:#E53834;" d="M246.723,112.57c0,1.61-1.706,2.915-3.811,2.915c-2.105,0-3.811-1.305-3.811-2.915
						c0-1.61,1.706-2.916,3.811-2.916C245.017,109.654,246.723,110.96,246.723,112.57z"/>
				</g>
				<g>
					<path style="fill:#070517;" d="M258.588,90.687c1.374,1.648,2.552,3.45,3.595,5.331c1.012,1.893,1.938,3.865,2.449,5.982
						c0.239,1.059,0.429,2.135,0.448,3.225l0.018,0.815l-0.08,0.814c-0.025,0.546-0.139,1.07-0.23,1.599
						c-0.409,2.108-1.066,4.161-1.784,6.174c-0.693,2.009-1.39,4.039-1.148,6.064c0.1,1.008,0.416,1.987,0.851,2.926
						c0.422,0.944,0.924,1.866,1.471,2.767c1.076,1.813,2.262,3.59,3.365,5.431c1.059,1.842,2.165,3.799,2.369,5.972l-0.089,0.011
						c-0.491-2.075-1.702-3.85-2.872-5.608c-1.185-1.761-2.467-3.47-3.592-5.314c-0.558-0.922-1.091-1.873-1.509-2.891
						c-0.431-1.006-0.753-2.096-0.833-3.217c-0.205-2.281,0.689-4.39,1.53-6.319c0.849-1.951,1.62-3.947,1.935-6.051
						c0.403-2.097,0.05-4.204-0.57-6.202c-1.207-4.023-3.225-7.794-5.398-11.457L258.588,90.687z"/>
				</g>
				<g>
					<path style="fill:#070517;" d="M218.956,94.394c-1.767,3.776-3.706,7.453-5.733,11.077c-0.5,0.894-1.105,1.798-1.493,2.694
						c-0.397,0.922-0.504,1.961-0.458,2.982c0.094,2.063,0.779,4.047,1.394,6.03c0.614,1.978,1.251,4.041,1.076,6.247
						c-0.039,0.547-0.16,1.096-0.337,1.626c-0.183,0.543-0.421,0.991-0.644,1.483c-0.48,0.948-1.02,1.855-1.593,2.735
						c-1.149,1.757-2.438,3.393-3.608,5.094c-1.178,1.688-2.32,3.43-2.837,5.444l-0.089-0.014c0.234-2.106,1.278-4.028,2.346-5.807
						c1.101-1.783,2.285-3.493,3.392-5.23c0.544-0.873,1.08-1.746,1.548-2.65c0.477-0.919,0.888-1.78,0.973-2.768
						c0.209-1.965-0.272-4.009-0.723-6.025c-0.462-2.023-1.028-4.046-1.2-6.147c-0.066-1.047-0.017-2.128,0.306-3.163
						c0.356-1.047,0.858-1.92,1.296-2.879c1.904-3.704,4.011-7.293,6.307-10.773L218.956,94.394z"/>
				</g>
			</g>
		</g>
		<g>
			<path style="fill:#E7F2F8;" d="M201.773,383.96c0,3.739-30.637,6.77-68.43,6.77s-68.429-3.031-68.429-6.77
				c0-3.739,30.637-6.77,68.429-6.77S201.773,380.221,201.773,383.96z"/>
			<g>
				<path style="fill:#070517;" d="M172.096,381.588c-2.819-1.424-4.518-2.281-5.723-2.805l0.03-0.002l-13.29-7.239l-8.814-0.655
					v2.092c-0.765,0.804-0.595,2.773-0.388,4.021c0.123,0.744,0.191,1.497,0.219,2.252c0.053,1.417,0.291,2.729,0.514,3.586
					c0.143,0.55,0.607,0.926,1.143,0.935c0.77,0.012,2.077,0.087,3.713,0.187h22.727
					C173.595,383.497,173.793,382.75,172.096,381.588z"/>
				<path style="fill:#070517;" d="M100.304,381.588c2.819-1.424,4.518-2.281,5.723-2.805l-0.03-0.002l13.29-7.239l8.814-0.655
					v2.092c0.766,0.804,0.595,2.773,0.389,4.021c-0.123,0.744-0.191,1.497-0.219,2.252c-0.053,1.417-0.292,2.729-0.514,3.586
					c-0.143,0.55-0.607,0.926-1.143,0.935c-0.77,0.012-2.077,0.087-3.713,0.187h-22.727
					C98.804,383.497,98.607,382.75,100.304,381.588z"/>
				<path style="fill:#57A7C2;" d="M160.694,197.23c0,0-29.822,11.134-53.576,2.074c0,0-5.384,26.097-4.751,45.734
					c0.633,19.637,3.268,48.127,3.902,60.162c0.633,12.036,8.261,68.429,8.261,68.429h14.126c0.398,2.844,6.994-31.508-1.289-68.594
					c-4.372-19.575,6.039-53.849,6.039-53.849s4.117,46.745,6.651,55.93c2.534,9.185-0.95,43.075,3.484,66.512h15.253
					c0,0,1.584-26.288,3.484-52.26c1.9-25.972,2.483-63.979,1.533-84.883C162.862,215.583,160.694,197.23,160.694,197.23z"/>
				<polygon style="fill:#4A8FA6;" points="133.406,251.186 130.239,233.003 129.734,263.053 				"/>
				
					<path style="fill:none;stroke:#4A8FA6;stroke-width:0.7112;stroke-linecap:round;stroke-linejoin:round;stroke-miterlimit:10;stroke-dasharray:2.1336;" d="
					M158.746,203.972c0,0,3.226,53.26,2.639,70.563c-0.587,17.303-4.106,95.428-4.106,95.428"/>
				<path style="fill:#18134D;" d="M96.977,120.196c-1.43,4.603-1.25,13.584-0.641,21.1c0.814,10.032,10.548,60.149,10.548,60.149
					c43.056,7.405,53.866-3.735,53.866-3.735s4.458-47.308,6.63-56.087c0.327-4.372,0.543-8.763,0.553-13.132
					c0.007-2.954-0.673-5.76-1.892-8.296H96.977z"/>
				<g>
					<path style="fill:#EBAF97;" d="M106.685,227.562c0.76,0.208,4.518,4.15,4.574,5.096c0.056,0.946-1.551,1.729-3.926,0.174
						c-2.375-1.555-2.502-4.045-2.502-4.045L106.685,227.562z"/>
					<g>
						<g>
							<path style="fill:#FEBEA3;" d="M101.873,218.566c0,0,0.385,3.673,1.609,5.287c1.225,1.615,3.658,3.051,4.023,4.702
								c0.365,1.652,1.473,6.438,1.245,8.693c-0.227,2.255-0.298,4.988-1.218,4.8c-0.92-0.188-1.497-1.116-1.599-1.968
								c0,0-0.285,0.963-1.154,1.052c-0.869,0.089-1.454-1.66-1.454-1.66s-1.14,2.056-2.213,0.324c0,0-1.706,0.203-2.715-0.589
								c-1.008-0.792-1.787-2.294-2-4.063c-0.213-1.77-1.262-4.968-1.646-7.049c-0.383-2.081-0.913-8.243-0.913-8.243
								S100.274,216.089,101.873,218.566z"/>
							<g>
								<path style="fill:#EBAF97;" d="M105.933,240.081c-0.161-0.745-0.256-1.492-0.342-2.24c-0.092-0.747-0.138-1.497-0.183-2.247
									c-0.06-1.488-0.133-3.037,0.239-4.521c0.061,0.758,0.108,1.503,0.178,2.245c0.085,0.735,0.135,1.494,0.178,2.242
									c0.03,0.751,0.06,1.503,0.044,2.257C106.038,238.57,106.018,239.324,105.933,240.081z"/>
							</g>
							<g>
								<path style="fill:#EBAF97;" d="M103.324,239.473c-0.222-0.657-0.378-1.318-0.524-1.978
									c-0.144-0.657-0.276-1.322-0.361-2.018c-0.066-0.687-0.096-1.371-0.068-2.054c0.022-0.683,0.066-1.365,0.189-2.044
									c0.125,0.678,0.197,1.353,0.27,2.027l0.203,2.008c0.065,0.653,0.181,1.324,0.22,2.011
									C103.304,238.105,103.347,238.787,103.324,239.473z"/>
							</g>
							<g>
								<path style="fill:#EBAF97;" d="M101.111,239.796c-0.59-0.403-1.035-0.984-1.41-1.588c-0.414-0.631-0.531-1.379-0.649-2.065
									c-0.095-0.702-0.151-1.403-0.147-2.106c-0.001-0.702,0.024-1.403,0.131-2.103c0.141,0.693,0.231,1.383,0.327,2.071
									l0.279,2.051c0.103,0.681,0.191,1.344,0.464,1.939C100.384,238.617,100.702,239.224,101.111,239.796z"/>
							</g>
						</g>
					</g>
				</g>
				<g>
					<path style="fill:#EBAF97;" d="M160.001,227.562c-0.76,0.208-4.518,4.15-4.574,5.096c-0.056,0.946,1.551,1.729,3.926,0.174
						c2.375-1.555,2.502-4.045,2.502-4.045L160.001,227.562z"/>
					<g>
						<g>
							<path style="fill:#FEBEA3;" d="M164.813,218.566c0,0-0.385,3.673-1.609,5.287c-1.225,1.615-3.658,3.051-4.023,4.702
								c-0.365,1.652-1.473,6.438-1.245,8.693c0.227,2.255,0.298,4.988,1.218,4.8c0.92-0.188,1.497-1.116,1.599-1.968
								c0,0,0.285,0.963,1.154,1.052c0.869,0.089,1.454-1.66,1.454-1.66s1.14,2.056,2.213,0.324c0,0,1.706,0.203,2.715-0.589
								c1.008-0.792,1.787-2.294,2-4.063c0.213-1.77,1.262-4.968,1.646-7.049c0.383-2.081,0.913-8.243,0.913-8.243
								S166.412,216.089,164.813,218.566z"/>
							<g>
								<path style="fill:#EBAF97;" d="M160.753,240.081c-0.085-0.756-0.105-1.51-0.115-2.263c-0.017-0.754,0.013-1.505,0.044-2.257
									c0.043-0.748,0.094-1.507,0.179-2.242c0.07-0.742,0.117-1.488,0.178-2.245c0.372,1.484,0.299,3.033,0.239,4.521
									c-0.045,0.75-0.091,1.5-0.183,2.247C161.01,238.589,160.914,239.336,160.753,240.081z"/>
							</g>
							<g>
								<path style="fill:#EBAF97;" d="M163.362,239.473c-0.023-0.686,0.02-1.368,0.073-2.049c0.038-0.688,0.155-1.359,0.22-2.011
									l0.203-2.008c0.074-0.673,0.145-1.349,0.27-2.027c0.123,0.679,0.167,1.361,0.189,2.044c0.028,0.684-0.002,1.367-0.068,2.054
									c-0.086,0.696-0.218,1.361-0.361,2.018C163.74,238.155,163.584,238.816,163.362,239.473z"/>
							</g>
							<g>
								<path style="fill:#EBAF97;" d="M165.575,239.796c0.409-0.572,0.727-1.18,1.005-1.801c0.273-0.595,0.361-1.258,0.464-1.939
									l0.279-2.051c0.096-0.688,0.186-1.378,0.327-2.071c0.107,0.7,0.132,1.401,0.131,2.103c0.004,0.703-0.052,1.404-0.147,2.106
									c-0.118,0.686-0.235,1.434-0.649,2.065C166.609,238.812,166.164,239.394,165.575,239.796z"/>
							</g>
						</g>
					</g>
				</g>
				<path style="fill:#18134D;" d="M178.145,138.893c-0.001-0.005-0.023-0.153-0.064-0.407c-1.376-8.461-3.85-18.852-10.43-25.096
					c-22.872-16.894-45.743-16.895-68.614,0c-6.582,6.243-9.056,16.634-10.432,25.096c-0.041,0.254-0.063,0.402-0.064,0.407
					c-2.295,14.545-3.135,32.777-3.135,32.777l8.111,52.528l9.846-1.977l-2.121-47.847c0,0,6.321-19.665,8.362-36.152l23.74-0.76
					l23.74,0.76c2.04,16.487,8.362,36.152,8.362,36.152l-2.121,47.847l9.846,1.977l8.111-52.528
					C181.28,171.67,180.44,153.438,178.145,138.893z"/>
				<g>
					<g>
						<path style="fill:#FEBEA3;" d="M120.362,102.534c0.192-0.18,0.585-0.514,0.698-0.664c2.205-2.963,2.744-8.199,2.744-8.199
							c5.731,5.163,16.881,1.743,16.881,1.743s0.983,4.131,3.578,6.59c-3.221,4.808-5.001,7.794-11.252,8.497
							C128.85,110.968,122.274,104.992,120.362,102.534z"/>
						<path style="fill:#EBAF97;" d="M123.803,93.668c0,0,7.342,4.352,16.884,1.743l2.807,5.762
							C143.494,101.173,128.77,105.89,123.803,93.668z"/>
						<path style="fill:#FEBEA3;" d="M134.675,56.202c3.998,0.492,7.507,3.068,9.377,6.866c1.713,3.48,3.435,8.509,3.228,14.424
							c-0.402,11.447-3.112,20.434-11.646,22.359c-8.533,1.926-14.457-8.666-15.36-13.48
							C119.456,82.01,116.989,54.025,134.675,56.202z"/>
						<g>
							<path style="fill:#D6A08A;" d="M133.66,79.723c-0.269,0.564-0.319,1.244-0.081,1.823c0.242,0.59,0.751,0.994,1.294,1.32
								c0.273,0.169,0.517,0.396,0.699,0.667c0.185,0.273,0.218,0.652,0.062,0.946c-0.321,0.584-0.962,0.893-1.585,1.001
								l-0.007-0.052c0.292-0.147,0.557-0.299,0.768-0.51c0.221-0.183,0.404-0.409,0.455-0.617c0.035-0.206,0.031-0.335-0.101-0.516
								c-0.136-0.17-0.33-0.346-0.583-0.481c-0.505-0.342-1.176-0.866-1.383-1.604c-0.216-0.734-0.036-1.501,0.416-2.003
								L133.66,79.723z"/>
						</g>
						<g>
							<g>
								<path style="fill:#070517;" d="M128.48,78.856c0,0.472-0.382,0.854-0.854,0.854c-0.472,0-0.854-0.382-0.854-0.854
									c0-0.472,0.382-0.854,0.854-0.854C128.098,78.002,128.48,78.384,128.48,78.856z"/>
								<path style="fill:#070517;" d="M129.848,76.134c-0.77-0.341-1.629-0.513-2.462-0.44c-0.419,0.017-0.829,0.13-1.211,0.299
									c-0.391,0.16-0.715,0.44-1.023,0.726c-0.015,0.014-0.038,0.013-0.052-0.002c-0.008-0.009-0.011-0.021-0.009-0.033
									l0.004-0.018c0.111-0.484,0.399-0.936,0.818-1.222c0.406-0.306,0.913-0.48,1.411-0.522c0.501-0.026,0.995,0.043,1.437,0.239
									c0.44,0.189,0.844,0.468,1.121,0.904l0.01,0.016c0.011,0.017,0.006,0.039-0.011,0.05
									C129.872,76.138,129.858,76.139,129.848,76.134z"/>
							</g>
							<g>
								<path style="fill:#070517;" d="M138.495,78.856c0,0.472,0.382,0.854,0.854,0.854c0.472,0,0.854-0.382,0.854-0.854
									c0-0.472-0.382-0.854-0.854-0.854C138.878,78.002,138.495,78.384,138.495,78.856z"/>
								<path style="fill:#070517;" d="M137.128,76.134c0.77-0.341,1.629-0.513,2.462-0.44c0.419,0.017,0.829,0.13,1.211,0.299
									c0.391,0.16,0.715,0.44,1.023,0.726c0.015,0.014,0.038,0.013,0.052-0.002c0.009-0.009,0.012-0.021,0.009-0.033l-0.004-0.018
									c-0.111-0.484-0.399-0.936-0.818-1.222c-0.406-0.306-0.913-0.48-1.411-0.522c-0.501-0.026-0.995,0.043-1.437,0.239
									c-0.44,0.189-0.844,0.468-1.121,0.904l-0.01,0.016c-0.011,0.017-0.006,0.039,0.011,0.05
									C137.104,76.138,137.117,76.139,137.128,76.134z"/>
							</g>
						</g>
						<g>
							<path style="fill:#070517;" d="M130.443,89.525c0.51,0.388,1.038,0.719,1.589,0.954c0.55,0.231,1.124,0.382,1.7,0.341
								c0.574,0.004,1.147-0.142,1.697-0.388c0.561-0.23,1.075-0.576,1.634-0.909l0.027,0.028l-0.718,0.63
								c-0.269,0.17-0.515,0.38-0.804,0.517c-0.557,0.316-1.193,0.482-1.831,0.509c-1.304,0.03-2.503-0.702-3.324-1.658
								L130.443,89.525z"/>
						</g>
						<g>
							<path style="opacity:0.14;fill:#E53834;" d="M130.369,84.187c0,1.391-1.474,2.519-3.293,2.519
								c-1.818,0-3.293-1.128-3.293-2.519c0-1.391,1.474-2.519,3.293-2.519C128.895,81.667,130.369,82.795,130.369,84.187z"/>
							<path style="opacity:0.14;fill:#E53834;" d="M143.192,84.187c0,1.391-1.474,2.519-3.293,2.519
								c-1.819,0-3.293-1.128-3.293-2.519c0-1.391,1.474-2.519,3.293-2.519C141.718,81.667,143.192,82.795,143.192,84.187z"/>
						</g>
					</g>
					<g>
						<path style="fill:#FEBEA3;" d="M121.204,79.728c0,1.9-0.729,3.44-1.627,3.44c-0.899,0-1.627-1.54-1.627-3.44
							c0-1.9,0.729-3.44,1.627-3.44C120.475,76.288,121.204,77.828,121.204,79.728z"/>
						<ellipse style="fill:#FEBEA3;" cx="147.399" cy="79.728" rx="1.627" ry="3.44"/>
					</g>
					<path style="fill:#CF332F;" d="M120.067,78.856l-0.814-2.568c0,0-3.699-9.173-2.515-15.904
						c1.184-6.732,16.292-9.616,21.757-8.729c5.465,0.888,6.574,7.397,6.574,7.397s5.104,1.997,4.882,7.471
						c-0.222,5.474-2.671,10.968-2.671,10.968l-0.362,2.865c0,0-1.553-2.293-1.849-6.879c-0.296-4.586-4.446-4.225-5.589-7.549
						c0,0-8.984,4.813-13.348,4.443C121.768,70,120.067,78.856,120.067,78.856"/>
				</g>
				<path style="fill:#070517;" d="M101.242,174.374c0,0-1.651-14.289-1.651-16.508c0-2.219,2.725-15.386,2.725-15.386
					L101.242,174.374z"/>
				<path style="fill:#070517;" d="M163.355,171.267c0,0,1.651-14.289,1.651-16.508c0-2.219-2.725-15.386-2.725-15.386
					L163.355,171.267z"/>
			</g>
		</g>
		<g>
			<path style="fill:#E7F2F8;" d="M434.351,383.96c0,3.739-30.637,6.77-68.43,6.77s-68.43-3.031-68.43-6.77
				c0-3.739,30.637-6.77,68.43-6.77S434.351,380.221,434.351,383.96z"/>
			<g>
				<path style="fill:#070517;" d="M404.691,381.588c-2.819-1.424-4.517-2.281-5.723-2.805l0.03-0.002l-13.29-7.239l-8.814-0.655
					v2.092c-0.765,0.804-0.595,2.773-0.388,4.021c0.123,0.744,0.191,1.497,0.219,2.252c0.053,1.417,0.292,2.729,0.514,3.586
					c0.143,0.55,0.607,0.926,1.143,0.935c0.77,0.012,2.077,0.087,3.713,0.187h22.727C406.19,383.497,406.388,382.75,404.691,381.588
					z"/>
				<path style="fill:#070517;" d="M332.898,381.588c2.819-1.424,4.517-2.281,5.723-2.805l-0.03-0.002l13.29-7.239l8.814-0.655
					v2.092c0.765,0.804,0.595,2.773,0.388,4.021c-0.123,0.744-0.191,1.497-0.219,2.252c-0.053,1.417-0.291,2.729-0.514,3.586
					c-0.143,0.55-0.607,0.926-1.143,0.935c-0.77,0.012-2.077,0.087-3.713,0.187h-22.727
					C331.399,383.497,331.201,382.75,332.898,381.588z"/>
				<path style="fill:#E53834;" d="M393.288,197.23c0,0-29.822,11.134-53.576,2.074c0,0-5.384,26.097-4.751,45.734
					c0.633,19.637,3.268,48.127,3.902,60.162c0.633,12.036,8.261,68.429,8.261,68.429h14.126c0.398,2.844,6.994-31.508-1.289-68.594
					c-4.372-19.575,6.039-53.849,6.039-53.849s4.117,46.745,6.651,55.93c2.534,9.185-0.95,43.075,3.484,66.512h15.253
					c0,0,1.584-26.288,3.484-52.26c1.9-25.972,2.483-63.979,1.533-84.883C395.456,215.583,393.288,197.23,393.288,197.23z"/>
				<polygon style="fill:#CF332F;" points="366.001,251.186 362.833,233.003 362.329,263.053 				"/>
				
					<path style="fill:none;stroke:#CF332F;stroke-width:0.7112;stroke-linecap:round;stroke-linejoin:round;stroke-miterlimit:10;stroke-dasharray:2.1336;" d="
					M391.341,203.972c0,0,3.226,53.26,2.639,70.563c-0.587,17.303-4.106,95.428-4.106,95.428"/>
				<g>
					<path style="fill:#FEBEA3;" d="M352.957,102.534c0.192-0.18,0.585-0.514,0.698-0.664c2.205-2.963,2.744-8.199,2.744-8.199
						c5.73,5.163,16.881,1.743,16.881,1.743s0.983,4.131,3.578,6.59c-3.221,4.808-5.001,7.794-11.252,8.497
						C361.445,110.968,354.869,104.992,352.957,102.534z"/>
					<path style="fill:#EBAF97;" d="M356.398,93.668c0,0,7.342,4.352,16.884,1.743l2.807,5.762
						C376.089,101.173,361.364,105.89,356.398,93.668z"/>
					<path style="fill:#FEBEA3;" d="M367.27,56.202c3.999,0.492,7.507,3.068,9.377,6.866c1.713,3.48,3.435,8.509,3.228,14.424
						c-0.402,11.447-3.112,20.434-11.646,22.359c-8.533,1.926-14.457-8.666-15.36-13.48C352.05,82.01,349.584,54.025,367.27,56.202z
						"/>
					<g>
						<path style="fill:#D6A08A;" d="M366.254,79.723c-0.269,0.564-0.319,1.244-0.081,1.823c0.242,0.59,0.751,0.994,1.293,1.32
							c0.273,0.169,0.517,0.396,0.699,0.667c0.185,0.273,0.218,0.652,0.062,0.946c-0.32,0.584-0.962,0.893-1.585,1.001l-0.007-0.052
							c0.292-0.147,0.557-0.299,0.768-0.51c0.221-0.183,0.404-0.409,0.455-0.617c0.035-0.206,0.031-0.335-0.101-0.516
							c-0.136-0.17-0.33-0.346-0.583-0.481c-0.505-0.342-1.176-0.866-1.383-1.604c-0.216-0.734-0.036-1.501,0.416-2.003
							L366.254,79.723z"/>
					</g>
					<g>
						<g>
							<path style="fill:#070517;" d="M361.075,78.856c0,0.472-0.383,0.854-0.854,0.854c-0.472,0-0.854-0.382-0.854-0.854
								c0-0.472,0.383-0.854,0.854-0.854C360.692,78.002,361.075,78.384,361.075,78.856z"/>
							<path style="fill:#070517;" d="M362.442,76.134c-0.77-0.341-1.629-0.513-2.462-0.44c-0.419,0.017-0.829,0.13-1.211,0.299
								c-0.391,0.16-0.715,0.44-1.023,0.726c-0.015,0.014-0.038,0.013-0.052-0.002c-0.008-0.009-0.011-0.021-0.009-0.033
								l0.004-0.018c0.111-0.484,0.399-0.936,0.818-1.222c0.406-0.306,0.913-0.48,1.411-0.522c0.501-0.026,0.995,0.043,1.437,0.239
								c0.44,0.189,0.844,0.468,1.121,0.904l0.01,0.016c0.011,0.017,0.006,0.039-0.011,0.05
								C362.466,76.138,362.453,76.139,362.442,76.134z"/>
						</g>
						<g>
							<path style="fill:#070517;" d="M371.089,78.856c0,0.472,0.382,0.854,0.854,0.854c0.472,0,0.854-0.382,0.854-0.854
								c0-0.472-0.382-0.854-0.854-0.854C371.472,78.002,371.089,78.384,371.089,78.856z"/>
							<path style="fill:#070517;" d="M369.722,76.134c0.77-0.341,1.629-0.513,2.462-0.44c0.419,0.017,0.829,0.13,1.211,0.299
								c0.391,0.16,0.715,0.44,1.023,0.726c0.015,0.014,0.038,0.013,0.052-0.002c0.008-0.009,0.012-0.021,0.009-0.033l-0.004-0.018
								c-0.111-0.484-0.399-0.936-0.818-1.222c-0.406-0.306-0.913-0.48-1.411-0.522c-0.501-0.026-0.995,0.043-1.437,0.239
								c-0.44,0.189-0.844,0.468-1.121,0.904l-0.01,0.016c-0.011,0.017-0.006,0.039,0.011,0.05
								C369.698,76.138,369.711,76.139,369.722,76.134z"/>
						</g>
					</g>
					<g>
						<path style="fill:#070517;" d="M363.038,89.525c0.51,0.388,1.038,0.719,1.589,0.954c0.55,0.231,1.124,0.382,1.7,0.341
							c0.574,0.004,1.147-0.142,1.697-0.388c0.561-0.23,1.075-0.576,1.634-0.909l0.027,0.028l-0.718,0.63
							c-0.269,0.17-0.515,0.38-0.804,0.517c-0.557,0.316-1.193,0.482-1.831,0.509c-1.304,0.03-2.503-0.702-3.324-1.658
							L363.038,89.525z"/>
					</g>
					<g>
						<path style="opacity:0.14;fill:#E53834;" d="M362.964,84.187c0,1.391-1.474,2.519-3.293,2.519
							c-1.819,0-3.293-1.128-3.293-2.519c0-1.391,1.474-2.519,3.293-2.519C361.49,81.667,362.964,82.795,362.964,84.187z"/>
						<path style="opacity:0.14;fill:#E53834;" d="M375.786,84.187c0,1.391-1.474,2.519-3.293,2.519
							c-1.818,0-3.293-1.128-3.293-2.519c0-1.391,1.474-2.519,3.293-2.519C374.312,81.667,375.786,82.795,375.786,84.187z"/>
					</g>
				</g>
				<g>
					<ellipse style="fill:#FEBEA3;" cx="352.171" cy="79.728" rx="1.627" ry="3.44"/>
					<ellipse style="fill:#FEBEA3;" cx="379.993" cy="79.728" rx="1.627" ry="3.44"/>
				</g>
				<path style="fill:#57A7C2;" d="M398.634,120.196c-1.788-13.397-22.546-19.023-22.546-19.023
					c-10.65,6.433-22.434,0.697-22.434,0.697c-14.593-0.143-24.084,18.326-24.084,18.326c-1.43,4.603-1.25,13.584-0.641,21.1
					c0.813,10.032,10.548,60.149,10.548,60.149c43.056,7.405,53.866-3.735,53.866-3.735s3.422-36.314,5.73-51.214
					c0.789-5.094,1.318-10.227,1.422-15.38c0.018-0.875,0.028-1.75,0.03-2.624C400.533,125.537,399.853,122.731,398.634,120.196z"/>
				<path style="fill:#18134D;" d="M352.171,76.729c0,0-3.78-1.561-3.78-6.795c0-5.234,3.3-5.576,3.3-5.576s-2.503-8.762,2.958-13.2
					c5.462-4.438,10.258,0.455,10.258,0.455s2.373-5.69,8.745-3.414c6.372,2.276,9.406,11.379,6.239,13.996
					c0,0,2.346,8.727,0.101,14.093l-1.532,2.308l-2.676-14.352c0,0-6.918,1.821-11.012-2.162c0,0-0.68,3.072-6.37,4.438
					c0,0-3.523,0.91-4.606,5.234c-1.083,4.324-0.841,7.102-0.841,7.102L352.171,76.729z"/>
				<g>
					<path style="fill:#FEBEA3;" d="M328.281,112.544c0,0-32.497,52.036-31.501,58.552c0.996,6.516,33.474,30.556,33.474,30.556
						l5.327-5.7c0,0-21.948-30.287-22.003-30.902c-0.055-0.614,17.309-11.87,20.674-22.698
						C337.617,131.524,337.104,111.961,328.281,112.544z"/>
					<path style="fill:#57A7C2;" d="M353.655,101.869c0,0-19.715,2.875-24.267,5.042c-4.552,2.167-14.578,27.916-14.578,27.916
						s9.702,15.737,19.422,17.752c9.72,2.015,20.612-50.211,20.612-50.211L353.655,101.869z"/>
					<path style="fill:#4A8FA6;" d="M329.96,149.917l8.076-12.619c0,0-6.67,20.251-6.835,19.282
						C331.037,155.611,329.96,149.917,329.96,149.917z"/>
					<path style="fill:#FEBEA3;" d="M327.567,199.161c0,0,3.908,4.02,4.199,7.095c0.29,3.075,0.194,6.181,0.588,7.854
						c0.394,1.673,4.154,6.057,4.154,6.057l0.74-7.421c0,0,2.682,2.016,3.701,3.229c1.019,1.213,3.497,2.68,4.112,1.428
						c0.615-1.252-1.263-2.941-2.246-4.054c-0.982-1.113-2.368-2.701-3.255-4.475c-0.887-1.774,0.096-7.084-0.462-8.128
						c-0.558-1.043-1.61-1.732-2.274-2.907c-0.664-1.174-3.738-5.335-3.738-5.335S327.735,195.177,327.567,199.161z"/>
				</g>
				<g>
					<path style="fill:#FEBEA3;" d="M403.563,112.544c0,0,32.497,52.036,31.501,58.552c-0.996,6.516-33.474,30.556-33.474,30.556
						l-5.327-5.7c0,0,21.948-30.287,22.003-30.902c0.055-0.614-17.309-11.87-20.674-22.698
						C394.227,131.524,394.739,111.961,403.563,112.544z"/>
					<path style="fill:#57A7C2;" d="M378.189,101.869c0,0,19.715,2.875,24.267,5.042c4.552,2.167,14.578,27.916,14.578,27.916
						s-9.702,15.737-19.422,17.752s-20.612-50.211-20.612-50.211L378.189,101.869z"/>
					<path style="fill:#4A8FA6;" d="M398.464,152.367l-7.615-15.069c0,0,6.486,21.981,6.65,21.012
						C397.664,157.341,398.464,152.367,398.464,152.367z"/>
					<path style="fill:#FEBEA3;" d="M404.276,199.161c0,0-3.908,4.02-4.198,7.095c-0.29,3.075-0.194,6.181-0.588,7.854
						c-0.394,1.673-4.154,6.057-4.154,6.057l-0.74-7.421c0,0-2.682,2.016-3.701,3.229c-1.019,1.213-3.497,2.68-4.112,1.428
						c-0.615-1.252,1.264-2.941,2.246-4.054c0.982-1.113,2.368-2.701,3.255-4.475c0.886-1.774-0.096-7.084,0.462-8.128
						c0.558-1.043,1.61-1.732,2.274-2.907c0.664-1.174,3.738-5.335,3.738-5.335S404.109,195.177,404.276,199.161z"/>
				</g>
			</g>
		</g>
	</g>
</g>
</svg>
